<svg width="800" height="600" viewBox="0 0 800 600" xmlns="http://www.w3.org/2000/svg">
  <rect width="800" height="600" fill="#f8fafc"/>
  <g stroke="#cbd5e1" stroke-width="2">
    <line x1="400" y1="300" x2="200" y2="150" />
    <line x1="400" y1="300" x2="600" y2="150" />
    <line x1="400" y1="300" x2="200" y2="450" />
    <line x1="400" y1="300" x2="600" y2="450" />
    <line x1="200" y1="150" x2="600" y2="150" />
    <line x1="200" y1="450" x2="600" y2="450" />
    <line x1="200" y1="150" x2="200" y2="450" />
    <line x1="600" y1="150" x2="600" y2="450" />
  </g>
  
  <circle cx="400" cy="300" r="60" fill="#1e3a8a" />
  
  <!-- Lightbulb Icon -->
  <g transform="translate(376, 276) scale(2)" fill="white">
    <path d="M9 21c0 .55.45 1 1 1h4c.55 0 1-.45 1-1v-1H9v1zm3-19C8.14 2 5 5.14 5 9c0 2.38 1.19 4.47 3 5.74V17c0 .55.45 1 1 1h6c.55 0 1-.45 1-1v-2.26c1.81-1.27 3-3.36 3-5.74 0-3.86-3.14-7-7-7zm2.85 11.1l-.85.6V16h-4v-2.3l-.85-.6A4.997 4.997 0 0 1 7 9c0-2.76 2.24-5 5-5s5 2.24 5 5c0 1.63-.8 3.16-2.15 4.1z"/>
  </g>
  
  <circle cx="200" cy="150" r="40" fill="#3b82f6" opacity="0.9" />
  <circle cx="600" cy="150" r="40" fill="#3b82f6" opacity="0.9" />
  <circle cx="200" cy="450" r="40" fill="#3b82f6" opacity="0.9" />
  <circle cx="600" cy="450" r="40" fill="#3b82f6" opacity="0.9" />
  
  <circle cx="300" cy="225" r="20" fill="#93c5fd" />
  <circle cx="500" cy="225" r="20" fill="#93c5fd" />
  <circle cx="300" cy="375" r="20" fill="#93c5fd" />
  <circle cx="500" cy="375" r="20" fill="#93c5fd" />
</svg>